<svg xmlns="http://www.w3.org/2000/svg" viewBox="0 0 64 64"><defs><style>.cls-1{fill:#ffa132;}.cls-2{fill:#009ede;}.cls-3{fill:#0083ca;}.cls-4{fill:#fff;}</style></defs><g id="_37.moon" data-name="37.moon"><path class="cls-1" d="M59.78,25.59c-.6-.7-1.56-.14-2.37-.23C51.5,25.55,47,19,49.29,13.55a1,1,0,0,0-1.1-1.35,10.66,10.66,0,0,0-8.95,10.55c0,.64-.06,1.48.45,2a14.62,14.62,0,0,1,4.16,5.66.94.94,0,0,0,.9.39,9.71,9.71,0,0,1,7.76,1.91,1,1,0,0,0,.92.16C55.86,32.22,60.62,28.28,59.78,25.59Z"/><path class="cls-2" d="M53.43,32.86a1,1,0,0,1-.92-.16,9.57,9.57,0,0,0-6-2.07c-.84-.1-1.7.4-2.45,0-1.26-2.17-2.47-4.45-4.52-6.05A4.7,4.7,0,0,1,39.27,22c-7.59-4.92-18.79-1.62-22.38,6.73C.75,27.54-.61,51.13,15.58,51.82h31C56.58,52,62,39.19,54.92,32.2A9.92,9.92,0,0,1,53.43,32.86Z"/><path class="cls-3" d="M53.43,32.86a1,1,0,0,1-.92-.16,9.57,9.57,0,0,0-6-2.07c-.84-.1-1.7.4-2.45,0-.85-1.07-1.22-2.52-2.16-3.56l-.24.25A15.71,15.71,0,0,0,21.1,35c-7.9-1.09-14.69,6.8-12.5,14.45a11.62,11.62,0,0,0,7,2.36h31C56.58,52,62,39.2,54.92,32.2A9.92,9.92,0,0,1,53.43,32.86Z"/><path class="cls-4" d="M34.31,23.3c-1.64-.77-9.73-.6-9,2.14a1,1,0,0,0,.9.55,11,11,0,0,1,7.52-.76A1,1,0,0,0,34.31,23.3Z"/><path class="cls-4" d="M22.71,26.33c-.91.62-1.23,2.14.19,2.27.58,0,.81-.45,1.21-.85C25.05,26.86,23.62,25.4,22.71,26.33Z"/><path class="cls-4" d="M18.91,32.54A8.42,8.42,0,0,0,9,34.78a1,1,0,0,0,.11,1.4,1,1,0,0,0,1.41-.11,6.43,6.43,0,0,1,4.9-2.27c1.28-.31,3.16,1.47,3.95.06A1,1,0,0,0,18.91,32.54Z"/><path class="cls-4" d="M8.42,37.66C7,37.44,7.08,39.26,7,40.22a1,1,0,0,0,1,1c1.29,0,.91-1.52,1.15-2.37A1,1,0,0,0,8.42,37.66Z"/><path d="M59.94,26.59a1,1,0,0,0-1.1-1.35c-6.39,1.28-12.06-5.71-9.55-11.69a1,1,0,0,0-1.1-1.35A10.67,10.67,0,0,0,39.27,22c-7.59-4.92-18.79-1.62-22.38,6.73C.75,27.54-.61,51.13,15.58,51.82h31C56.58,52,62,39.19,54.92,32.2A10.62,10.62,0,0,0,59.94,26.59ZM56.15,40.22a9.62,9.62,0,0,1-9.6,9.6h-31A9.61,9.61,0,0,1,6,40.22C6,29.86,20.47,27,24.44,36.53a1,1,0,1,0,1.85-.77,11.65,11.65,0,0,0-7.39-6.63c4.65-9.84,19.69-9.83,24.33,0a11.66,11.66,0,0,0-7.38,6.63,1,1,0,0,0,1.85.77C41.66,27,56.17,29.86,56.15,40.22Zm-2.88-9.44a11.47,11.47,0,0,0-8-2.06,15.62,15.62,0,0,0-4-5.27,8.64,8.64,0,0,1,5.62-8.86c-1.39,6.35,3.91,12.89,10.42,12.77A8.6,8.6,0,0,1,53.27,30.78Z"/></g></svg>