<svg xmlns="http://www.w3.org/2000/svg" viewBox="0 0 64 64"><defs><style>.cls-1{fill:none;}.cls-2{fill:#009ede;}.cls-3{fill:#0083ca;}.cls-4{fill:#fff;}</style></defs><g id="_43.cloud" data-name="43.cloud"><path class="cls-1" d="M20.19,20.61a16,16,0,0,0-2.54,3.67h.11A15.88,15.88,0,0,1,20.19,20.61Z"/><path class="cls-1" d="M20.61,20.16l.07-.07Z"/><path class="cls-2" d="M15.3,47.47l-.4,0Z"/><path class="cls-2" d="M44.54,24.15l.13.23Z"/><path class="cls-2" d="M14.23,47.32l-.5-.1Z"/><path class="cls-2" d="M13.23,47.09a5.54,5.54,0,0,1-.58-.17Z"/><path class="cls-2" d="M12.34,46.81a12.13,12.13,0,0,1-3.1-1.65C7,37.4,14,29.54,22.1,30.62c3.43-7.71,13.48-11.29,21.18-7.72l.24-.26.29.4A22.32,22.32,0,0,0,41,20a5.36,5.36,0,0,1-.2-1.95c-7.55-5.17-19.29-2.2-23,6.26h-.11c-.09.17-.18.34-.26.51C3.51,23.36-.46,42.11,12.34,46.81Z"/><path class="cls-3" d="M55,28.52c-2.18-1.09-4.1-2.46-6.75-2.3-.86-.11-1.74.4-2.52,0-.87-1.08-1.26-2.53-2.22-3.59l-.24.26c-7.7-3.57-17.75,0-21.18,7.72C14,29.54,7,37.4,9.24,45.16a12.16,12.16,0,0,0,7.18,2.37H48.26a11.23,11.23,0,0,0,8-19.44A4.54,4.54,0,0,1,55,28.52Z"/><path class="cls-4" d="M35.33,19.2c-1.69-.8-9.95-.62-9.21,2.16a1,1,0,0,0,.9.56,11.29,11.29,0,0,1,7.77-.79A1,1,0,0,0,35.33,19.2Z"/><path class="cls-4" d="M23.4,22.32c-.92.63-1.26,2.15.17,2.28.56,0,.88-.52,1.24-.87C25.74,22.83,24.3,21.39,23.4,22.32Z"/><path class="cls-4" d="M19.45,28.72A8.7,8.7,0,0,0,9.3,31a1,1,0,0,0,1.53,1.29A6.63,6.63,0,0,1,15.9,30c1.3-.32,3.27,1.5,4,.07A1,1,0,0,0,19.45,28.72Z"/><path class="cls-4" d="M8.64,34c-1.43-.22-1.34,1.64-1.39,2.61a1,1,0,0,0,1,1c1.31,0,.9-1.56,1.15-2.42A1,1,0,0,0,8.64,34Z"/><path d="M46.61,24.8c-5.41-12.35-23.8-12.35-29.22,0C.77,23.54-.64,47.84,16,48.55H48C64.53,48,63.3,23.52,46.61,24.8ZM48,46.55H16A9.94,9.94,0,0,1,6.1,36.62c0-10.72,15-13.7,19.09-3.82A1,1,0,0,0,27,32a12,12,0,0,0-7.63-6.84C24.19,15,39.81,15,44.6,25.2A12,12,0,0,0,37,32a1,1,0,0,0,1.85.76c4.1-9.88,19.11-6.9,19.09,3.82A9.94,9.94,0,0,1,48,46.55Z"/></g></svg>