<svg xmlns="http://www.w3.org/2000/svg" viewBox="0 0 64 64"><defs><style>.cls-1{fill:#009ede;}.cls-2{fill:#0083ca;}.cls-3{fill:#fadf00;}.cls-4{fill:#ffc332;opacity:0.91;}.cls-5{fill:#fff;}</style></defs><g id="_4.sun" data-name="4.sun"><path class="cls-1" d="M42.55,22.07c-5-11.13-21.62-11.13-26.58,0C.86,21-.36,43.11,14.8,43.69H43.72C58.81,43.14,57.73,21,42.55,22.07Z"/><path class="cls-2" d="M52.8,26.88a10.59,10.59,0,0,0-2.25,0c-.2-.42-.42-.82-.65-1.22l-5.33-3.07H42l-1-1-.74-1.48-2.89-1.66A14.59,14.59,0,0,0,24,26.89c-8.89-1.28-15.4,9.49-10.26,16.74a9.82,9.82,0,0,0,1.09.06H43.72C52.17,43.94,57.64,33.72,52.8,26.88Z"/><path class="cls-3" d="M42.55,22.07a10.79,10.79,0,0,1,9.36,3.64C57.75,12.35,39.47,2.1,31,13.75A14.58,14.58,0,0,1,42.55,22.07Z"/><path class="cls-4" d="M42.55,22.07A10.8,10.8,0,0,1,52,25.76,12.16,12.16,0,0,0,36,15.28,14.66,14.66,0,0,1,42.55,22.07Z"/><path class="cls-5" d="M31.75,18.86a1,1,0,0,0,.55-1.93c-1.6-.73-9.19-.59-8.45,2.09a1,1,0,0,0,.9.55A10.27,10.27,0,0,1,31.75,18.86Z"/><path class="cls-5" d="M21.4,19.79c-.91.62-1.14,2.1.23,2.22.57,0,.8-.42,1.19-.82A1,1,0,0,0,21.4,19.79Z"/><path class="cls-5" d="M10.16,29a6,6,0,0,1,7-1.58,1,1,0,0,0,.82-1.82,7.94,7.94,0,0,0-9.3,2.11A1,1,0,1,0,10.16,29Z"/><path class="cls-5" d="M8.12,30.34c-1.57-.44-2,3.55-.37,3.46,1.25,0,.92-1.44,1.14-2.27A1,1,0,0,0,8.12,30.34Z"/><path d="M53.19,20.49c.09-11.86-15.69-16.7-22.25-6.85A14.62,14.62,0,0,0,16,22C.85,20.89-.36,43.11,14.8,43.69a1,1,0,0,0,0-2A8.9,8.9,0,0,1,5.91,32.8c0-9.61,13.42-12.28,17.1-3.42a1,1,0,0,0,1.84-.77A10.94,10.94,0,0,0,18,22.39c4.34-9,18.2-9,22.53,0a11,11,0,0,0-6.86,6.22,1,1,0,1,0,1.85.76,8.93,8.93,0,0,1,6.61-5.32c12.69-1.76,14.4,17.08,1.6,17.64a1,1,0,0,0,0,2c9.14.2,14.32-11.25,8.26-18A12,12,0,0,0,53.19,20.49ZM42.54,22a14.56,14.56,0,0,0-9.44-7.94c7.29-8.91,21.6-.51,17.36,10.2A10.68,10.68,0,0,0,42.54,22Z"/><path class="cls-5" d="M46,13.17c-1.06-.89-5.2-3.1-5.68-.88a1,1,0,0,0,.94,1.06,6,6,0,0,1,3.48,1.38A1,1,0,0,0,46,13.17Z"/><path class="cls-5" d="M38.06,12a8.67,8.67,0,0,0-1.12.62,1,1,0,0,0,.55,1.83c.82-.22,2.36-.83,1.89-1.94A1,1,0,0,0,38.06,12Z"/><path d="M41,7.34a1,1,0,0,0,1-1V2.39a1,1,0,0,0-2,0v4A1,1,0,0,0,41,7.34Z"/><path d="M51.29,11.19a1,1,0,0,0,.7-.29l2.8-2.79a1,1,0,0,0-1.42-1.42l-2.79,2.8A1,1,0,0,0,51.29,11.19Z"/><path d="M59.09,19.49h-4a1,1,0,0,0,0,2h4A1,1,0,0,0,59.09,19.49Z"/><path d="M30,10.9c.91.93,2.35-.51,1.42-1.41l-2.8-2.8c-.9-.93-2.34.51-1.41,1.42Z"/><path d="M21.46,38.23a1,1,0,0,0-1.31.54L14,53.54a1,1,0,0,0,1.85.77L22,39.54A1,1,0,0,0,21.46,38.23Z"/><path d="M27.62,36.46a1,1,0,0,0-1.31.54L20.15,51.77a1,1,0,0,0,1.85.77l6.15-14.77A1,1,0,0,0,27.62,36.46Z"/><path d="M30.69,42.08a1,1,0,0,0-1.31.53L23.23,57.38a1,1,0,0,0,.92,1.39,1,1,0,0,0,.93-.62l6.15-14.77A1,1,0,0,0,30.69,42.08Z"/><path d="M36.85,40.31a1,1,0,0,0-1.31.53L29.38,55.61a1,1,0,1,0,1.85.77l6.15-14.77A1,1,0,0,0,36.85,40.31Z"/><path d="M39.92,45.92a1,1,0,0,0-1.3.54L32.46,61.23a1,1,0,0,0,1.85.77l6.15-14.77A1,1,0,0,0,39.92,45.92Z"/></g></svg>