<svg xmlns="http://www.w3.org/2000/svg" viewBox="0 0 64 64"><defs><style>.cls-1{fill:#ffa132;}.cls-2{fill:#009ede;}.cls-3{fill:#0083ca;}.cls-4{fill:#fff;}</style></defs><g id="_20.moon" data-name="20.moon"><path class="cls-1" d="M59.67,16.5c-.6-.71-1.56-.14-2.36-.24-5.9.19-10.37-6.36-8.12-11.78A1,1,0,0,0,48.1,3.14a10.64,10.64,0,0,0-8.93,10.52c0,.64-.06,1.48.45,2a14.74,14.74,0,0,1,4.15,5.65,1,1,0,0,0,.9.39,9.62,9.62,0,0,1,7.74,1.9,1,1,0,0,0,.92.16C55.75,23.1,60.51,19.18,59.67,16.5Z"/><path class="cls-2" d="M53.33,23.74a1,1,0,0,1-.92-.16,9.53,9.53,0,0,0-5.95-2.06c-.84-.11-1.69.4-2.45,0-1.25-2.17-2.46-4.44-4.5-6a4.71,4.71,0,0,1-.31-2.61C31.63,8,20.44,11.28,16.86,19.61.75,18.43-.59,42,15.56,42.64h30.9c10,.23,15.38-12.58,8.36-19.55A11,11,0,0,1,53.33,23.74Z"/><path class="cls-3" d="M53.33,23.74a1,1,0,0,1-.92-.16,9.53,9.53,0,0,0-5.95-2.06c-.84-.11-1.69.4-2.45,0C43.17,20.46,42.8,19,41.86,18l-.23.26c-7.52-3.55-17.23,0-20.56,7.65C13.18,24.8,6.4,32.66,8.59,40.29a11.5,11.5,0,0,0,7,2.35h30.9c10,.23,15.38-12.58,8.36-19.55A11,11,0,0,1,53.33,23.74Z"/><path class="cls-4" d="M33.72,16.13A1,1,0,0,0,35,15.44c.75-2.86-10.89-1.78-9.63.9a1,1,0,0,0,.9.55A11,11,0,0,1,33.72,16.13Z"/><path class="cls-4" d="M22.69,17.24c-.91.62-1.2,2.13.2,2.25.55,0,.87-.51,1.23-.85C25,17.72,23.58,16.3,22.69,17.24Z"/><path class="cls-4" d="M10.59,26.94a6.42,6.42,0,0,1,7.5-1.7,1,1,0,0,0,.82-1.83,8.41,8.41,0,0,0-9.84,2.24,1,1,0,0,0,.11,1.41A1,1,0,0,0,10.59,26.94Z"/><path class="cls-4" d="M8.45,28.53C7,28.31,7.12,30.12,7.07,31.08a1,1,0,0,0,1,1c1.29,0,.91-1.52,1.15-2.37A1,1,0,0,0,8.45,28.53Z"/><path d="M59.83,17.49a1,1,0,0,0-1.1-1.35c-6.37,1.28-12-5.69-9.53-11.66a1,1,0,0,0-1.09-1.35,10.64,10.64,0,0,0-8.9,9.76C31.64,8,20.46,11.28,16.89,19.61.71,18.4-.44,42.06,15.6,42.64a1,1,0,0,0,0-2A9.56,9.56,0,1,1,24.42,27.4a1,1,0,1,0,1.85-.77A11.66,11.66,0,0,0,18.91,20c4.63-9.8,19.62-9.79,24.25,0a11.64,11.64,0,0,0-7.36,6.62,1,1,0,0,0,1.85.77,9.57,9.57,0,0,1,7.1-5.72c13.66-1.9,15.49,18.36,1.72,19a1,1,0,0,0,0,2c10,.22,15.37-12.58,8.36-19.55A10.64,10.64,0,0,0,59.83,17.49Zm-6.66,4.17a11.4,11.4,0,0,0-8-2.05,15.38,15.38,0,0,0-4-5.26,8.66,8.66,0,0,1,5.62-8.82A10.74,10.74,0,0,0,57.22,18.25,8.54,8.54,0,0,1,53.17,21.66Z"/><path d="M24.43,36.51a1,1,0,0,0-1.31.53L17,51.81a1,1,0,1,0,1.85.77L25,37.81A1,1,0,0,0,24.43,36.51Z"/><path d="M30.58,34.74a1,1,0,0,0-1.31.53L23.12,50a1,1,0,0,0,.54,1.31,1,1,0,0,0,1.3-.54L31.12,36A1,1,0,0,0,30.58,34.74Z"/><path d="M33.66,40.35a1,1,0,0,0-1.31.54L26.2,55.66a1,1,0,0,0,1.84.77l6.15-14.77A1,1,0,0,0,33.66,40.35Z"/><path d="M39.81,38.58a1,1,0,0,0-1.31.54L32.35,53.89a1,1,0,1,0,1.84.77l6.16-14.77A1,1,0,0,0,39.81,38.58Z"/><path d="M42.89,44.2a1,1,0,0,0-1.31.54L35.43,59.51a1,1,0,1,0,1.84.76l6.15-14.76A1,1,0,0,0,42.89,44.2Z"/></g></svg>