<svg xmlns="http://www.w3.org/2000/svg" viewBox="0 0 64 64"><defs><style>.cls-1{fill:#009ede;}.cls-2{fill:#0083ca;}.cls-3{fill:#fadf00;}.cls-4{fill:#ffc332;opacity:0.91;}.cls-5{fill:#fff;}</style></defs><g id="_7.sun" data-name="7.sun"><path class="cls-1" d="M42.55,25.57C37.6,14.43,20.94,14.42,16,25.56.86,24.47-.36,46.65,14.8,47.23H43.72C58.82,46.68,57.73,24.5,42.55,25.57Z"/><path class="cls-2" d="M52.81,30.39a10.69,10.69,0,0,0-2.26,0,12.83,12.83,0,0,0-.64-1.22l-5.34-3.07H42l-1-1-.75-1.48L37.38,22A14.59,14.59,0,0,0,24,30.4c-8.9-1.28-15.41,9.52-10.26,16.77a9.64,9.64,0,0,0,1.08.06H43.72C52.18,47.48,57.64,37.23,52.81,30.39Z"/><path class="cls-3" d="M42.55,25.57a10.79,10.79,0,0,1,9.37,3.65C57.76,15.85,39.48,5.56,31,17.24A14.59,14.59,0,0,1,42.55,25.57Z"/><path class="cls-4" d="M42.55,25.57A10.8,10.8,0,0,1,52,29.27,12.16,12.16,0,0,0,36,18.78,14.52,14.52,0,0,1,42.55,25.57Z"/><path class="cls-5" d="M31.76,22.4A1,1,0,0,0,33,21.71c.7-2.81-10.33-1.79-9.13.85A1,1,0,0,0,25.2,23,9.09,9.09,0,0,1,31.76,22.4Z"/><path class="cls-5" d="M21.41,23.32c-.91.62-1.15,2.11.23,2.22.56,0,.79-.41,1.18-.81C23.75,23.83,22.31,22.39,21.41,23.32Z"/><path class="cls-5" d="M10.17,32.5a6,6,0,0,1,7-1.58,1,1,0,0,0,1.32-.5c.51-1.38-1.38-1.67-2.32-1.88a7.82,7.82,0,0,0-7.48,2.67A1,1,0,0,0,10.17,32.5Z"/><path class="cls-5" d="M8.13,33.88c-1.57-.44-2,3.55-.37,3.46,1.24,0,.92-1.44,1.13-2.27A1,1,0,0,0,8.13,33.88Z"/><path d="M53.19,24c.09-11.86-15.69-16.7-22.25-6.85a14.61,14.61,0,0,0-15,8.34C.86,24.43-.35,46.65,14.8,47.23a1,1,0,0,0,0-2,8.9,8.9,0,0,1-8.89-8.89c0-9.61,13.42-12.29,17.1-3.43a1,1,0,0,0,1.85-.76A11,11,0,0,0,18,25.93c4.34-9,18.19-9,22.53,0a10.94,10.94,0,0,0-6.86,6.22,1,1,0,1,0,1.84.76,9,9,0,0,1,6.61-5.32c12.7-1.76,14.4,17.08,1.6,17.64a1,1,0,0,0,0,2c9.14.2,14.33-11.26,8.27-18A12.14,12.14,0,0,0,53.19,24ZM42.55,25.52a14.56,14.56,0,0,0-9.44-7.93c7.28-8.92,21.61-.51,17.36,10.21A10.77,10.77,0,0,0,42.55,25.52Z"/><path class="cls-5" d="M41.34,14.89a1,1,0,0,0-.11,2c1.46-.06,2.57.95,3.84,1.39C48.41,17,42.81,14.73,41.34,14.89Z"/><path class="cls-5" d="M38.06,15.53a8.16,8.16,0,0,0-1.12.62A1,1,0,0,0,37.49,18c.83-.22,2.37-.83,1.9-1.94A1,1,0,0,0,38.06,15.53Z"/><path d="M41,10.87a1,1,0,0,0,1-1V5.92a1,1,0,0,0-2,0V9.87A1,1,0,0,0,41,10.87Z"/><path d="M51.29,14.73a1,1,0,0,0,.71-.29l2.79-2.79a1,1,0,0,0,0-1.42,1,1,0,0,0-1.41,0L50.59,13A1,1,0,0,0,51.29,14.73Z"/><path d="M59.1,23h-4a1,1,0,0,0,0,2h4A1,1,0,0,0,59.1,23Z"/><path d="M30,14.44c.9.93,2.34-.51,1.41-1.42l-2.79-2.79c-.9-.93-2.35.51-1.42,1.42Z"/><path d="M24,48.08h-4.2l4-6.47a1,1,0,0,0-1.69-1.06l-5,8A1,1,0,0,0,18,50.08h4.13l-5,7.44a1,1,0,1,0,1.67,1.11l6-9A1,1,0,0,0,24,48.08Z"/><path d="M40,48.08h-4.2l4-6.47a1,1,0,0,0-1.69-1.06l-5,8A1,1,0,0,0,34,50.08h4.13l-5,7.44a1,1,0,1,0,1.67,1.11l6-9A1,1,0,0,0,40,48.08Z"/><path d="M32,44.08h-4.2l4-6.47a1,1,0,0,0-1.69-1.06l-5,8A1,1,0,0,0,26,46.08h4.13l-5,7.44a1,1,0,1,0,1.67,1.11l6-9A1,1,0,0,0,32,44.08Z"/></g></svg>