<svg xmlns="http://www.w3.org/2000/svg" viewBox="0 0 64 64"><defs><style>.cls-1{fill:#ffa132;}.cls-2{fill:#009ede;}.cls-3{fill:#0083ca;}.cls-4{fill:#fff;}</style></defs><g id="_23.moon" data-name="23.moon"><path class="cls-1" d="M59.66,19.29c-.6-.7-1.56-.14-2.36-.24-5.9.19-10.36-6.37-8.11-11.78A1,1,0,0,0,48.1,5.92a10.65,10.65,0,0,0-8.94,10.53c.05.64-.06,1.48.45,2a14.49,14.49,0,0,1,4.15,5.66,1,1,0,0,0,.9.39,9.63,9.63,0,0,1,7.74,1.91,1,1,0,0,0,.92.15C55.75,25.9,60.5,22,59.66,19.29Z"/><path class="cls-2" d="M53.32,26.54a1,1,0,0,1-.92-.15,9.49,9.49,0,0,0-5.94-2.07c-.84-.11-1.7.4-2.45,0-1.26-2.17-2.46-4.45-4.51-6a4.61,4.61,0,0,1-.3-2.61c-7.58-4.91-18.76-1.61-22.34,6.73C.75,21.23-.59,44.78,15.55,45.47H46.46c10,.22,15.37-12.6,8.35-19.58A9.46,9.46,0,0,1,53.32,26.54Z"/><path class="cls-3" d="M53.32,26.54a1,1,0,0,1-.92-.15,9.49,9.49,0,0,0-5.94-2.07c-.84-.11-1.7.4-2.45,0-.85-1.07-1.21-2.52-2.16-3.56l-.23.25a15.67,15.67,0,0,0-20.55,7.67C13.18,27.6,6.4,35.48,8.59,43.11a11.57,11.57,0,0,0,7,2.36h30.9c10,.22,15.37-12.6,8.35-19.58A9.46,9.46,0,0,1,53.32,26.54Z"/><path class="cls-4" d="M33.71,19A1,1,0,0,0,34.26,17c-1.63-.78-9.72-.6-8.95,2.13a1,1,0,0,0,.9.56A10.94,10.94,0,0,1,33.71,19Z"/><path class="cls-4" d="M22.69,20.05c-.59.5-1.21,1.37-.46,2s1.38,0,1.87-.61C25,20.56,23.59,19.12,22.69,20.05Z"/><path class="cls-4" d="M18.9,26.23a8.4,8.4,0,0,0-9.84,2.24,1,1,0,1,0,1.52,1.29,6.39,6.39,0,0,1,4.89-2.26c1.27-.31,3.14,1.47,3.94.06A1,1,0,0,0,18.9,26.23Z"/><path class="cls-4" d="M8.45,31.35C7,31.13,7.11,32.94,7.06,33.9a1,1,0,0,0,1,1c1.29,0,.91-1.51,1.15-2.36A1,1,0,0,0,8.45,31.35Z"/><path d="M59.82,20.31A1,1,0,0,0,58.72,19c-6.37,1.28-12-5.69-9.52-11.66A1,1,0,0,0,48.1,6a10.62,10.62,0,0,0-8.89,9.76c-7.57-4.91-18.75-1.61-22.33,6.71-16.1-1.17-17.43,22.37-1.29,23a1,1,0,0,0,0-2,9.56,9.56,0,1,1,8.83-13.25,1,1,0,0,0,1.84-.76,11.56,11.56,0,0,0-7.36-6.62c4.63-9.81,19.62-9.8,24.25,0a11.63,11.63,0,0,0-7.36,6.62,1,1,0,0,0,.54,1.3,1,1,0,0,0,1.31-.54,9.57,9.57,0,0,1,7.11-5.72c13.65-1.9,15.48,18.36,1.72,19a1,1,0,0,0,0,2c10,.21,15.36-12.59,8.35-19.56A10.64,10.64,0,0,0,59.82,20.31Zm-6.66,4.17a11.45,11.45,0,0,0-8-2.05,15.48,15.48,0,0,0-4-5.26,8.64,8.64,0,0,1,5.61-8.82A10.74,10.74,0,0,0,57.21,21.07,8.49,8.49,0,0,1,53.16,24.48Z"/><path d="M27,47.1h-4.2l4-6.47a1,1,0,0,0-1.69-1.06l-5,8A1,1,0,0,0,21,49.1h4.13l-5,7.44A1,1,0,0,0,21,58.1a1,1,0,0,0,.83-.45l6-9A1,1,0,0,0,27,47.1Z"/><path d="M43,47.1h-4.2l4-6.47a1,1,0,0,0-1.69-1.06l-5,8A1,1,0,0,0,37,49.1h4.13l-5,7.44A1,1,0,0,0,37,58.1a1,1,0,0,0,.83-.45l6-9A1,1,0,0,0,43,47.1Z"/><path d="M35,43.1h-4.2l4-6.47a1,1,0,0,0-1.69-1.06l-5,8A1,1,0,0,0,29,45.1h4.13l-5,7.44A1,1,0,0,0,29,54.1a1,1,0,0,0,.83-.45l6-9A1,1,0,0,0,35,43.1Z"/></g></svg>