<svg xmlns="http://www.w3.org/2000/svg" viewBox="0 0 64 64"><defs><style>.cls-1{fill:#009ede;}.cls-2{fill:#0083ca;}.cls-3{fill:#fadf00;}.cls-4{fill:#ffc332;opacity:0.91;}.cls-5{fill:#fff;}</style></defs><g id="_12.sun" data-name="12.sun"><path class="cls-1" d="M42.55,25c-5-11.16-21.61-11.17-26.57,0C.86,23.93-.35,46.15,14.8,46.73H43.72C58.81,46.17,57.73,24,42.55,25Z"/><path class="cls-2" d="M52.8,29.86a10.59,10.59,0,0,0-2.25,0c-.2-.42-.42-.83-.65-1.22l-5.33-3.08H42l-1-1-.74-1.49-2.88-1.66A14.57,14.57,0,0,0,24,29.87c-8.91-1.28-15.4,9.54-10.26,16.8a9.64,9.64,0,0,0,1.08.06H43.72C52.17,47,57.64,36.71,52.8,29.86Z"/><path class="cls-3" d="M42.55,25a10.74,10.74,0,0,1,9.36,3.66C57.75,15.3,39.49,5,31,16.69A14.58,14.58,0,0,1,42.55,25Z"/><path class="cls-4" d="M42.55,25a10.78,10.78,0,0,1,9.4,3.7C51.49,21.09,43.3,15.6,36,18.22A14.66,14.66,0,0,1,42.55,25Z"/><path d="M18.29,42.87a1,1,0,1,0,1.71.71A1,1,0,0,0,18.29,42.87Z"/><path d="M19.71,45.87c-.9-.9-2.34.49-1.42,1.41S20.63,46.78,19.71,45.87Z"/><path d="M18.29,48.87c-.92.91.52,2.35,1.42,1.41S19.21,48,18.29,48.87Z"/><path d="M18.29,51.87a1,1,0,1,0,1.71.71A1,1,0,0,0,18.29,51.87Z"/><path d="M19.71,54.87c-.9-.9-2.34.49-1.42,1.41S20.63,55.78,19.71,54.87Z"/><path d="M19.71,57.87c-.91-.9-2.34.49-1.42,1.41S20.63,58.78,19.71,57.87Z"/><path d="M29.56,42.74c-2-1-2,2.63,0,1.67A1,1,0,0,0,29.56,42.74Z"/><path d="M29.56,45.75c-2-1-2,2.61,0,1.66A1,1,0,0,0,29.56,45.75Z"/><path d="M29.92,49.19a1,1,0,1,0-.36,1.22A1,1,0,0,0,29.92,49.19Z"/><path d="M29.71,51.87l-.15-.13a1,1,0,1,0,.15.13Z"/><path d="M29.71,54.87l-.15-.13a1,1,0,1,0,.15.13Z"/><path d="M29.71,57.87a1,1,0,1,0-.15,1.54A1,1,0,0,0,29.71,57.87Z"/><path d="M39.71,42.87c-.9-.93-2.34.5-1.42,1.41S40.63,43.78,39.71,42.87Z"/><path d="M39.71,45.87c-.9-.93-2.34.5-1.42,1.41S40.63,46.78,39.71,45.87Z"/><path d="M39.71,48.87c-.9-.93-2.34.5-1.42,1.41S40.63,49.78,39.71,48.87Z"/><path d="M39.71,51.87c-.9-.93-2.34.5-1.42,1.41S40.63,52.78,39.71,51.87Z"/><path d="M39.71,54.87c-.9-.93-2.34.5-1.42,1.41S40.63,55.78,39.71,54.87Z"/><path d="M39.71,57.87c-.9-.93-2.34.5-1.42,1.41S40.63,58.78,39.71,57.87Z"/><path d="M24.71,36.87a1,1,0,0,0-1.27-.13,1,1,0,1,0,1.27.13Z"/><path d="M24.71,39.87a.61.61,0,0,0-.16-.12,1,1,0,0,0-1.26,1.53C24.19,42.22,25.63,40.78,24.71,39.87Z"/><path d="M23.29,42.87c-.92.9.52,2.35,1.42,1.41S24.2,42,23.29,42.87Z"/><path d="M23.29,45.87c-.92.9.52,2.35,1.42,1.41S24.2,45,23.29,45.87Z"/><path d="M24.71,48.87a1,1,0,0,0-1.42,1.41C24.19,51.21,25.63,49.78,24.71,48.87Z"/><path d="M24.71,51.87a.61.61,0,0,0-.16-.12c-1.06-.75-2.19,1-1.11,1.66A1,1,0,0,0,24.71,51.87Z"/><path d="M34.71,36.87a1,1,0,0,0-1.27-.13,1,1,0,1,0,1.27.13Z"/><path d="M34.71,39.87c-.9-.93-2.35.5-1.42,1.41S35.63,40.78,34.71,39.87Z"/><path d="M34.71,42.87A1,1,0,1,0,34,44.58,1,1,0,0,0,34.71,42.87Z"/><path d="M34.71,45.87c-.9-.93-2.34.5-1.42,1.41S35.63,46.78,34.71,45.87Z"/><path d="M34.92,49.19a1,1,0,0,0-1.84.77A1,1,0,0,0,34.92,49.19Z"/><path d="M34.38,51.65a1,1,0,0,0-.76,1.85A1,1,0,0,0,34.38,51.65Z"/><path class="cls-5" d="M32.3,20c-1.6-.73-9.19-.59-8.45,2.09a1,1,0,0,0,.89.55,10.31,10.31,0,0,1,7-.72A1,1,0,0,0,32.3,20Z"/><path class="cls-5" d="M21.4,22.82c-.91.62-1.14,2.11.23,2.22.56,0,.8-.42,1.19-.81C23.75,23.33,22.31,21.89,21.4,22.82Z"/><path class="cls-5" d="M18.44,29.92c.51-1.38-1.38-1.67-2.33-1.88A7.82,7.82,0,0,0,8.64,30.7,1,1,0,0,0,10.16,32a5.94,5.94,0,0,1,5.6-2C16.65,30.1,17.87,31.09,18.44,29.92Z"/><path class="cls-5" d="M8.12,33.38c-1.57-.44-2,3.55-.37,3.45,1.25,0,.93-1.43,1.14-2.26A1,1,0,0,0,8.12,33.38Z"/><path d="M53.19,23.52c.09-11.85-15.69-16.69-22.25-6.85A14.63,14.63,0,0,0,16,25C.79,24-.3,46.17,14.8,46.73a1,1,0,0,0,0-2,8.9,8.9,0,0,1-8.89-8.9c0-9.6,13.42-12.28,17.1-3.42a1,1,0,1,0,1.84-.76A10.92,10.92,0,0,0,18,25.43c4.33-9,18.19-9,22.52,0a11,11,0,0,0-6.86,6.22A1,1,0,0,0,34.2,33a1,1,0,0,0,1.31-.54,8.89,8.89,0,0,1,6.61-5.32c12.69-1.76,14.4,17.08,1.6,17.64a1,1,0,0,0,0,2c9.13.2,14.33-11.26,8.26-18A12,12,0,0,0,53.19,23.52ZM50.46,27.3A10.73,10.73,0,0,0,42.54,25a14.58,14.58,0,0,0-9.44-7.94C40.39,8.17,54.71,16.58,50.46,27.3Z"/><path class="cls-5" d="M41.34,14.39a1,1,0,0,0-.12,2c1.41-.05,2.51.91,3.74,1.32C48.28,16.41,42.79,14.23,41.34,14.39Z"/><path class="cls-5" d="M38.06,15a7.61,7.61,0,0,0-1.12.62,1,1,0,0,0,.55,1.83c.82-.23,2.36-.83,1.89-2A1,1,0,0,0,38.06,15Z"/><path d="M41,10.37a1,1,0,0,0,1-1V5.42a1,1,0,0,0-2,0V9.37A1,1,0,0,0,41,10.37Z"/><path d="M51.29,14.23a1,1,0,0,0,.7-.29l2.8-2.8a1,1,0,0,0,0-1.41,1,1,0,0,0-1.42,0l-2.79,2.79A1,1,0,0,0,51.29,14.23Z"/><path d="M59.09,22.52h-4a1,1,0,0,0,0,2h4A1,1,0,0,0,59.09,22.52Z"/><path d="M30,13.94c.9.93,2.35-.51,1.42-1.42l-2.8-2.79c-.9-.93-2.34.51-1.41,1.41Z"/></g></svg>