<svg xmlns="http://www.w3.org/2000/svg" viewBox="0 0 64 64"><defs><style>.cls-1{fill:#ffa132;}.cls-2{fill:#009ede;}.cls-3{fill:#0083ca;}.cls-4{fill:#fff;}</style></defs><g id="_28.moon" data-name="28.moon"><path class="cls-1" d="M59.66,20.07c-.6-.71-1.56-.14-2.37-.24C51.4,20,46.94,13.47,49.18,8.05a1,1,0,0,0-1.09-1.34,10.64,10.64,0,0,0-8.93,10.51c.05.65-.06,1.49.45,2a14.53,14.53,0,0,1,4.15,5.65,1,1,0,0,0,.9.39,9.62,9.62,0,0,1,7.74,1.9,1,1,0,0,0,.92.16C55.74,26.67,60.49,22.75,59.66,20.07Z"/><path class="cls-2" d="M53.32,27.31a1,1,0,0,1-.92-.16,9.53,9.53,0,0,0-5.95-2.06c-.83-.11-1.69.4-2.44,0-1.26-2.17-2.47-4.44-4.51-6a4.71,4.71,0,0,1-.31-2.61c-7.57-4.9-18.75-1.61-22.33,6.72C.74,22-.59,45.53,15.55,46.21h30.9c10,.23,15.38-12.58,8.36-19.55A11,11,0,0,1,53.32,27.31Z"/><path class="cls-3" d="M53.32,27.31a1,1,0,0,1-.92-.16,9.53,9.53,0,0,0-5.95-2.06c-.83-.11-1.69.4-2.44,0-.85-1.07-1.22-2.51-2.16-3.56l-.23.26a15.66,15.66,0,0,0-20.55,7.65C13.18,28.37,6.4,36.23,8.59,43.86a11.49,11.49,0,0,0,7,2.35h30.9c10,.23,15.38-12.58,8.36-19.55A11,11,0,0,1,53.32,27.31Z"/><path d="M21.66,40.64c-.92-.93-2.33.5-1.42,1.42A1,1,0,0,0,21.66,40.64Z"/><path d="M21.87,44c-.63-1.45-2.7-.07-1.63,1.08A1,1,0,0,0,21.87,44Z"/><path d="M21.87,47c-.54-1.32-2.55-.24-1.75.94A1,1,0,0,0,21.87,47Z"/><path d="M20.57,49.42A1,1,0,0,0,21,51.35,1,1,0,1,0,20.57,49.42Z"/><path d="M21.66,52.64c-.9-.94-2.34.5-1.42,1.42A1,1,0,0,0,21.66,52.64Z"/><path d="M21.66,55.64c-.91-.93-2.34.5-1.42,1.42A1,1,0,0,0,21.66,55.64Z"/><path d="M31.87,41c-.64-1.45-2.7-.08-1.63,1.09A1,1,0,0,0,31.87,41Z"/><path d="M30.24,43.64a1,1,0,0,0,1.42,1.42A1,1,0,0,0,30.24,43.64Z"/><path d="M31.33,46.42a1,1,0,0,0-.76,1.85A1,1,0,0,0,31.33,46.42Z"/><path d="M30.24,49.64a1,1,0,0,0,1.42,1.42A1,1,0,0,0,30.24,49.64Z"/><path d="M30.24,52.64c-.92.91.52,2.34,1.42,1.41S31.16,51.74,30.24,52.64Z"/><path d="M31.33,55.42a1,1,0,0,0-.76,1.85A1,1,0,0,0,31.33,55.42Z"/><path d="M41.33,40.42a1,1,0,0,0-1.09,1.64A1,1,0,1,0,41.33,40.42Z"/><path d="M41.66,43.64c-.92-.9-2.34.5-1.42,1.41S42.58,44.55,41.66,43.64Z"/><path d="M41.66,46.64a1,1,0,0,0-1.42,1.42A1,1,0,0,0,41.66,46.64Z"/><path d="M40.24,49.64c-.92.91.52,2.35,1.42,1.41S41.15,48.74,40.24,49.64Z"/><path d="M41.66,52.64c-.92-.9-2.34.5-1.42,1.41S42.58,53.55,41.66,52.64Z"/><path d="M41.33,55.42a1,1,0,0,0-1.09,1.64A1,1,0,1,0,41.33,55.42Z"/><path d="M26.66,34.64a1,1,0,1,0,.12,1.26A1,1,0,0,0,26.66,34.64Z"/><path d="M26.66,37.64a1,1,0,1,0-.15,1.54A1,1,0,0,0,26.66,37.64Z"/><path d="M26.66,40.64a1,1,0,0,0-1.42,1.42A1,1,0,0,0,26.66,40.64Z"/><path d="M26.87,44a1,1,0,0,0-1.92.38,1,1,0,0,0,1.56.83A1,1,0,0,0,26.87,44Z"/><path d="M26.51,46.52a1,1,0,1,0,.27,1.38A1,1,0,0,0,26.51,46.52Z"/><path d="M26.66,49.64a1,1,0,1,0-.15,1.54A1,1,0,0,0,26.66,49.64Z"/><path d="M36.51,34.52a1,1,0,0,0-1.27,1.53A1,1,0,1,0,36.51,34.52Z"/><path d="M36.66,37.64c-.91-.93-2.33.5-1.42,1.42A1,1,0,0,0,36.66,37.64Z"/><path d="M36.51,40.52a1,1,0,0,0-1.27,1.53A1,1,0,1,0,36.51,40.52Z"/><path d="M36.66,43.64c-.91-.93-2.33.5-1.42,1.42A1,1,0,0,0,36.66,43.64Z"/><path d="M36.87,47a.89.89,0,0,0-.21-.33,1,1,0,1,0,.21.33Z"/><path d="M36.66,49.64c-.91-.93-2.33.49-1.42,1.42A1,1,0,0,0,36.66,49.64Z"/><path class="cls-4" d="M34.25,17.78c-1.63-.78-9.71-.6-8.94,2.13a1,1,0,0,0,.89.55,11,11,0,0,1,7.51-.76A1,1,0,0,0,34.25,17.78Z"/><path class="cls-4" d="M22.68,20.8c-1.84,1.3,0,3.39,1.35,1.48C25.08,21.42,23.64,19.83,22.68,20.8Z"/><path class="cls-4" d="M18.9,27a8.4,8.4,0,0,0-9.85,2.24,1,1,0,1,0,1.53,1.29,6.38,6.38,0,0,1,4.88-2.26c1.28-.31,3.15,1.47,3.94.05A1,1,0,0,0,18.9,27Z"/><path class="cls-4" d="M8.44,32.1C7,31.88,7.1,33.69,7.06,34.65a1,1,0,0,0,1,1c1.29,0,.91-1.52,1.15-2.37A1,1,0,0,0,8.44,32.1Z"/><path d="M59.82,21.05a1,1,0,0,0-1.1-1.34C52.35,21,46.69,14,49.19,8.05A1,1,0,0,0,48.1,6.7a10.64,10.64,0,0,0-8.9,9.76c-7.57-4.91-18.74-1.62-22.32,6.71C.77,22-.56,45.54,15.58,46.21a1,1,0,0,0,0-2A9.56,9.56,0,1,1,24.41,31a1,1,0,1,0,1.85-.77,11.66,11.66,0,0,0-7.36-6.62c4.63-9.8,19.61-9.79,24.25,0a11.61,11.61,0,0,0-7.36,6.62,1,1,0,1,0,1.84.77,9.6,9.6,0,0,1,7.11-5.72c13.65-1.9,15.49,18.36,1.72,19a1,1,0,0,0,0,2c10,.22,15.37-12.58,8.35-19.55A10.64,10.64,0,0,0,59.82,21.05Zm-6.66,4.18a11.45,11.45,0,0,0-8-2.05,15.38,15.38,0,0,0-4-5.26A8.66,8.66,0,0,1,46.82,9.1,10.74,10.74,0,0,0,57.21,21.82,8.54,8.54,0,0,1,53.16,25.23Z"/></g></svg>