<svg xmlns="http://www.w3.org/2000/svg" viewBox="0 0 64 64"><defs><style>.cls-1{fill:#ffa132;}.cls-2{fill:#009ede;}.cls-3{fill:#0083ca;}.cls-4{fill:#fff;}</style></defs><g id="_25.moon" data-name="25.moon"><path class="cls-1" d="M59.21,19.79c-.6-.7-1.56-.14-2.37-.24-5.9.19-10.35-6.37-8.11-11.79a1,1,0,0,0-1.09-1.34A10.65,10.65,0,0,0,38.71,17c0,.64-.06,1.48.45,2a14.49,14.49,0,0,1,4.15,5.66,1,1,0,0,0,.9.39A9.63,9.63,0,0,1,52,26.89a1,1,0,0,0,.92.15C55.29,26.4,60,22.47,59.21,19.79Z"/><path class="cls-2" d="M52.87,27a1,1,0,0,1-.92-.15,9.54,9.54,0,0,0-6-2.07c-.84-.11-1.69.4-2.44,0-1.26-2.17-2.47-4.45-4.51-6a4.7,4.7,0,0,1-.31-2.61C31.17,11.27,20,14.57,16.41,22.91.3,21.73-1,45.28,15.11,46H46c10,.22,15.38-12.6,8.36-19.58A9.88,9.88,0,0,1,52.87,27Z"/><path class="cls-3" d="M52.87,27a1,1,0,0,1-.92-.15,9.54,9.54,0,0,0-6-2.07c-.84-.11-1.69.4-2.44,0-.85-1.07-1.22-2.52-2.16-3.56l-.23.25a15.67,15.67,0,0,0-20.55,7.67C12.73,28.1,6,36,8.14,43.61a11.51,11.51,0,0,0,7,2.36H46c10,.22,15.38-12.6,8.36-19.58A9.88,9.88,0,0,1,52.87,27Z"/><path class="cls-4" d="M25.3,18.32a1,1,0,0,0,.9,1.79,9.84,9.84,0,0,1,7.05-.66,1,1,0,0,0,1.24-.68C34.74,15.94,26.78,17.25,25.3,18.32Z"/><path class="cls-4" d="M22.23,20.55c-1.84,1.31,0,3.4,1.35,1.49C24.63,21.17,23.19,19.58,22.23,20.55Z"/><path d="M15.13,46a1,1,0,0,0,0-2C1.36,43.36,3.2,23.1,16.86,25A9.59,9.59,0,0,1,24,30.72,1,1,0,1,0,25.81,30a11.63,11.63,0,0,0-7.37-6.62c4.63-9.8,19.62-9.79,24.26,0A11.63,11.63,0,0,0,35.33,30a1,1,0,0,0,.55,1.3,1,1,0,0,0,1.3-.54A9.62,9.62,0,0,1,44.29,25C57.94,23.1,59.78,43.37,46,44a1,1,0,0,0,0,2c10,.22,15.38-12.6,8.34-19.55,2.21-.79,8.57-7.94,2.49-6.84-5.89.18-10.35-6.36-8.1-11.77a1,1,0,0,0-1.1-1.35,10.64,10.64,0,0,0-8.89,9.75C31.18,11.31,20,14.6,16.43,22.93.32,21.76-1,45.29,15.13,46ZM40.71,17a8.67,8.67,0,0,1,5.66-8.13A10.74,10.74,0,0,0,56.76,21.58,8.68,8.68,0,0,1,52.7,25a11.4,11.4,0,0,0-8-2.06,15.48,15.48,0,0,0-4-5.26C40.73,17.43,40.71,17.2,40.71,17Z"/><path class="cls-4" d="M10.13,30.26a6.39,6.39,0,0,1,6-2.15c.93.08,2.19,1.16,2.78-.05.52-1.42-1.47-1.68-2.43-1.92A8.29,8.29,0,0,0,8.6,29,1,1,0,0,0,10.13,30.26Z"/><path class="cls-4" d="M8,31.85c-1.41-.22-1.34,1.59-1.38,2.55a1,1,0,0,0,1,1c1.28,0,.91-1.51,1.14-2.36A1,1,0,0,0,8,31.85Z"/><path d="M60.5,47.6H3.5a1,1,0,0,0,0,2h57A1,1,0,0,0,60.5,47.6Z"/><path d="M51.5,51.6h-39a1,1,0,0,0,0,2h39A1,1,0,0,0,51.5,51.6Z"/><path d="M44.5,55.6h-25a1,1,0,0,0,0,2h25A1,1,0,0,0,44.5,55.6Z"/></g></svg>